<?xml version="1.0" encoding="utf-8"?>
<!-- Generator: Adobe Illustrator 19.1.0, SVG Export Plug-In . SVG Version: 6.00 Build 0)  -->
<svg version="1.1" id="a" xmlns="http://www.w3.org/2000/svg" xmlns:xlink="http://www.w3.org/1999/xlink" x="0px" y="0px"
	 viewBox="0 0 9.5 19.4" style="enable-background:new 0 0 9.5 19.4;" xml:space="preserve">
<g>
	<path d="M5.9,10.1c0-0.4-0.1-0.8-0.2-1.1C5.5,8.2,5,7.5,4.1,7.5S2.5,7.9,1.5,8.7c0,0,0,0-0.1,0c-0.1,0-0.2-0.2-0.1-0.3
		c1-1.1,2.3-1.8,4.2-1.8c2.4,0,2.8,2,2.8,3.9c0,0.3,0,1.4-0.1,2c0,0.8-0.1,1.6-0.1,1.9c0,0.1,0,0.2,0.2,0.2l0.8,0.2
		c0.1,0,0.1,0.1,0.1,0.2c0,0,0,0.1-0.1,0.1c-0.2,0-1,0-1.7,0c-0.6,0-1,0-1.3,0c-0.1,0-0.1,0-0.1-0.1c0-0.1-0.1-0.8-0.1-1.2
		c0-0.1,0-0.4,0-0.5l-0.1,0c-0.1,0.1-0.2,0.3-0.3,0.5c-0.5,0.7-1.4,1.5-2.9,1.5c-1.2,0-2.4-0.8-2.4-2.4c0-1.6,1-3.3,3.4-3.3
		c0.7,0,1.3,0.3,1.6,0.5C5.6,9.9,5.7,10,5.9,10.1L5.9,10.1z M4.3,14.2c0.7,0,1.4-0.7,1.7-1.7c0.1-0.2,0.1-0.4,0.1-0.6
		c0-0.2-0.1-0.4-0.2-0.7c-0.2-0.6-0.8-1.3-1.6-1.3C3.4,9.8,3,11,3,12.2C3,13.5,3.5,14.2,4.3,14.2L4.3,14.2z"/>
</g>
</svg>
