<?xml version="1.0" encoding="utf-8"?>
<!-- Generator: Adobe Illustrator 19.1.0, SVG Export Plug-In . SVG Version: 6.00 Build 0)  -->
<svg version="1.1" id="bunch" xmlns="http://www.w3.org/2000/svg" xmlns:xlink="http://www.w3.org/1999/xlink" x="0px" y="0px"
	 viewBox="0 0 51.3 19.4" style="enable-background:new 0 0 51.3 19.4;" xml:space="preserve">
<g>
	<path d="M3.7,10c0.1-0.2,0.1-0.3,0.2-0.5c0.4-0.9,1.6-2.9,3.6-2.9C9,6.6,9.8,8.2,9.8,10c0,2.6-1.3,5.1-4.1,5.1
		c-1.1,0-1.9-0.4-2.6-1.2c-0.1-0.1-0.2-0.1-0.3,0l-1,1.1c0,0-0.1,0-0.1,0c-0.1,0-0.4-0.1-0.4-0.1c0-1-0.1-4.8-0.1-6.3
		c0-1.2,0-4.6-0.1-4.9c0-0.2-0.1-0.3-0.2-0.3l-0.9,0C0.1,3.4,0,3.3,0,3.2c0-0.1,0-0.1,0.1-0.1l3.6-0.4c0.1,0,0.2,0,0.2,0.1
		c0,0.2-0.2,5-0.2,6.3C3.6,9.3,3.6,9.8,3.7,10L3.7,10z M5.4,14.8c1.1,0,1.8-1.4,1.8-3.9C7.2,9.4,6.8,8,6,8C4.9,8,3.8,10,3.5,11.6
		c0,0.1,0,0.3,0,0.4c0,0.2,0,0.4,0,0.5C3.7,14,4.6,14.8,5.4,14.8L5.4,14.8z"/>
	<path d="M16.5,7.3c-0.1,0-0.1-0.1-0.1-0.2c0,0,0-0.1,0.1-0.1l3.2-0.5c0.1,0,0.1,0,0.1,0.1c0,0.7,0,3.4,0,4.1c0,0.8,0.1,2.9,0.1,3.3
		c0,0.2,0.1,0.3,0.2,0.3l0.7,0.2c0.1,0,0.1,0.2,0.1,0.2c0,0,0,0-0.1,0c-0.5,0-1,0-1.7,0c-0.6,0-1.2,0-1.5,0c-0.1,0-0.1-0.1-0.1-0.2
		c0-0.2,0-1.7,0-2.4v-0.6h-0.1c-0.1,0.2-0.1,0.4-0.2,0.5c-0.7,1.8-1.8,2.8-3.3,2.8c-1.3,0-2.4-1.1-2.4-3.7c0-1.3,0.1-2.8,0.3-3.7
		c0-0.2,0-0.3-0.2-0.3h-0.8c-0.1,0-0.1-0.1-0.1-0.2c0,0,0-0.1,0.1-0.1l3.2-0.5c0.1,0,0.1,0,0.1,0.2c0,0.6-0.1,2.7-0.1,3.5
		c0,2.5,0.3,3.5,1.2,3.5c1.1,0,2-1.9,2.3-4.3c0.1-0.5,0.1-1.5,0.1-1.8c0-0.2-0.1-0.3-0.2-0.4L16.5,7.3z"/>
	<path d="M31.8,14.7c0.1,0,0.1,0.1,0.1,0.2c0,0,0,0,0,0c-0.6,0-1.2,0-2.3,0c-1,0-1.8,0-2.3,0c0,0-0.1,0-0.1,0c0-0.1,0-0.2,0.1-0.2
		l0.9-0.2c0.1,0,0.2-0.1,0.2-0.3c0-0.4,0.1-1.8,0.1-2.6c0-1.6-0.2-3.4-1.2-3.4c-0.9,0-1.7,1.4-2.3,3.6c-0.1,0.6-0.3,1.8-0.3,2.4
		c0,0.2,0.1,0.2,0.2,0.2l0.9,0.2c0.1,0,0.1,0.1,0.1,0.2c0,0,0,0-0.1,0c-0.7,0-1.3,0-2.3,0s-1.7,0-2.2,0c0,0,0,0,0,0
		c0-0.1,0-0.2,0.1-0.2l0.9-0.2c0.1,0,0.2-0.1,0.2-0.3c0-0.5,0-2.6,0-3.4c0-0.6-0.1-2.6-0.1-3.1c0-0.2,0-0.3-0.2-0.3l-0.8-0.1
		c-0.1,0-0.1-0.1-0.1-0.2c0,0,0-0.1,0.1-0.1l3.5-0.6c0.1,0,0.1,0,0.1,0.1c0,0.3-0.1,2.5-0.1,3.5c0,0.2,0,0.4,0,0.6l0.1,0
		c0.1-0.2,0.1-0.4,0.2-0.5c0.5-1.6,1.9-3.8,3.6-3.8c1.4,0,2.2,1.4,2.2,3.9c0,1.3-0.1,3-0.2,3.8c0,0.2,0,0.3,0.2,0.3L31.8,14.7z"/>
	<path d="M32.7,11.5c0-1.5,0.7-2.9,1.8-3.7C35.5,7,36.6,6.6,38,6.6c0.8,0,1.3,0.1,1.5,0.2c0.1,0,0.1,0.1,0.1,0.2l0.1,1.9
		c0,0.1-0.2,0.1-0.2,0.1c0,0-0.1,0-0.1,0c-0.3-0.5-0.6-1.1-0.8-1.5c-0.1-0.1-0.2-0.3-0.3-0.4C38.2,7,37.9,7,37.7,7
		C37,7,36.5,7.5,36,8.5c-0.3,0.7-0.5,1.6-0.5,2.7c0,2.1,1.1,3.1,2.4,3.1c0.3,0,0.6,0,0.9-0.1c0.5-0.1,0.9-0.3,1.2-0.4
		c0,0,0.1,0.1,0.1,0.2c0,0.1,0,0.1-0.1,0.1c-0.3,0.2-1,0.6-1.8,0.8c-0.3,0.1-0.6,0.2-1.5,0.2C34.5,15.1,32.7,14.1,32.7,11.5
		L32.7,11.5z"/>
	<path d="M44.2,2.7c0.1,0,0.1,0.1,0.1,0.2c0,0.1-0.2,6-0.3,7.5c0,0.2,0,0.4,0,0.6h0.1c0.1-0.2,0.1-0.4,0.2-0.5
		C44.8,9,46.2,6.6,48,6.6c1.5,0,2.2,1.5,2.2,3.8c0,1.6-0.1,3.1-0.2,3.7c0,0.3,0,0.4,0.1,0.4l0.9,0.2c0,0,0.1,0.1,0.1,0.2
		c0,0,0,0-0.1,0c-0.3,0-1.1,0-2.1,0c-1.1,0-1.9,0-2.3,0c-0.1,0-0.1,0-0.1,0c0-0.1,0-0.2,0.1-0.2l0.9-0.2c0.1,0,0.2-0.1,0.2-0.3
		c0.1-0.5,0.1-1.5,0.1-2.6c0-1.7-0.2-3.4-1.2-3.4c-1,0-2,1.8-2.5,3.9c-0.1,0.5-0.2,1.6-0.2,2.1c0,0.2,0.1,0.2,0.2,0.2l0.9,0.2
		c0,0,0.1,0.1,0.1,0.2c0,0,0,0.1-0.1,0.1c-0.4,0-1.3,0-2.3,0c-1,0-1.8,0-2.1,0c-0.1,0-0.1,0-0.1-0.1c0-0.1,0.1-0.2,0.1-0.2l0.9-0.2
		c0.1,0,0.1-0.1,0.1-0.2c0-0.5,0-4.2,0-5.3c0-0.8-0.1-4.7-0.1-5.4c0-0.2,0-0.2-0.2-0.3l-1.1-0.1c-0.1,0-0.1-0.1-0.1-0.2
		c0,0,0-0.1,0.1-0.1L44.2,2.7z"/>
</g>
</svg>
