<?xml version="1.0" encoding="utf-8"?>
<!-- Generator: Adobe Illustrator 19.1.0, SVG Export Plug-In . SVG Version: 6.00 Build 0)  -->
<svg version="1.1" id="Here" xmlns="http://www.w3.org/2000/svg" xmlns:xlink="http://www.w3.org/1999/xlink" x="0px" y="0px"
	 viewBox="0 0 38.2 19.4" style="enable-background:new 0 0 38.2 19.4;" xml:space="preserve">
<g>
	<path d="M5.3,3.8C5.3,3.8,5.3,3.9,5.3,3.8c0,0.1,0,0.3-0.1,0.3L4.5,4.3c-0.1,0-0.2,0.1-0.2,0.3C4.2,5.7,4.1,8.3,4.1,8.7
		c0,0.2,0.1,0.3,0.3,0.3C5.3,9,7.6,9,8.4,9c0-0.5,0-4.1,0-4.4c0-0.2-0.1-0.3-0.2-0.3L7.5,4.2C7.4,4.1,7.4,4,7.4,3.9c0,0,0,0,0.1,0
		H12c0,0,0.1,0,0.1,0.1c0,0.1,0,0.2-0.1,0.3l-0.7,0.1c-0.1,0-0.2,0.1-0.2,0.2c-0.1,0.7-0.2,4.1-0.2,4.9c0,0.9-0.1,4.3-0.1,4.8
		c0,0.2,0,0.2,0.1,0.3l0.9,0.2c0,0,0.1,0.1,0.1,0.2c0,0,0,0.1,0,0.1c-0.4,0-1.2,0-2.2,0c-1,0-2.1,0-2.4,0c-0.1,0-0.1,0-0.1-0.1
		c0-0.1,0.1-0.2,0.1-0.2l0.9-0.2c0.1,0,0.2-0.1,0.2-0.2c0-0.6,0-4.6,0-4.9c-0.8,0-3.2,0.1-4.1,0.2c-0.2,0-0.2,0.1-0.2,0.2
		c0,1-0.1,3.9-0.1,4.6c0,0.1,0.1,0.2,0.2,0.2L5,14.7c0.1,0,0.1,0.1,0.1,0.2c0,0,0,0.1-0.1,0.1c-0.4,0-1.2,0-2.3,0
		c-0.9,0-1.7,0-2.2,0c-0.1,0-0.1,0-0.1-0.1c0-0.1,0-0.2,0.1-0.2l0.8-0.2c0.1,0,0.2-0.1,0.2-0.3c0-0.7,0-4.1-0.1-4.8
		c0-0.7-0.1-4.4-0.1-4.8c0-0.2-0.1-0.3-0.2-0.3L0.6,4.2C0.6,4.1,0.5,4,0.5,3.9c0,0,0-0.1,0.1-0.1H5.3z"/>
	<path d="M20.9,10.2c0,0.2-0.1,0.4-0.4,0.5c-0.7,0.2-3.9,0.2-4.8,0.1c0,0.4,0,1,0.1,1.2c0.3,1.4,1.3,2.2,2.4,2.2
		c0.4,0,0.9-0.1,1.2-0.1c0.4-0.1,0.9-0.3,1.3-0.5c0,0,0.1,0.1,0.1,0.2c0,0.1,0,0.1-0.1,0.1c-0.4,0.3-1.3,0.7-2.1,0.9
		c-0.4,0.1-0.8,0.2-1.6,0.2c-2.3,0-3.9-1.1-3.9-3.7c0-2.4,1.8-4.8,4.3-4.8C19.9,6.6,20.9,8.7,20.9,10.2L20.9,10.2z M17.2,7
		c-0.7,0-1.4,1.1-1.4,3.6c1,0.1,2,0,2.3-0.1c0.1-0.1,0.3-0.2,0.3-0.6C18.4,8.9,18.2,6.9,17.2,7L17.2,7z"/>
	<path d="M25.4,10.9c0-0.2,0.1-0.4,0.1-0.5c0.4-1.7,1.4-3.8,3-3.8c0.3,0,0.5,0.1,0.6,0.1c0,0,0.1,0.1,0.1,0.1l0.1,2.5
		c0,0.1-0.2,0.2-0.2,0.2c0,0,0,0-0.1,0c-0.2-0.4-0.5-0.9-0.7-1.2C28.1,8.1,27.9,8,27.7,8c-1,0-1.8,1.8-2.3,4.2
		c-0.1,0.5-0.2,1.7-0.2,2.1c0,0.2,0.1,0.2,0.2,0.2l1.4,0.2c0,0,0.1,0.1,0.1,0.2c0,0,0,0.1,0,0.1c-0.5,0-1.5,0-2.8,0
		c-1.1,0-2,0-2.2,0c0,0,0,0,0,0c0-0.1,0-0.2,0.1-0.2l0.9-0.2c0.1,0,0.2-0.1,0.2-0.2c0-0.5,0-2.7-0.1-3.4c0-0.8,0-2.6-0.1-3.1
		c0-0.2,0-0.3-0.2-0.3l-0.8-0.1c-0.1,0-0.1-0.1-0.1-0.2c0,0,0-0.1,0.1-0.1l3.5-0.5c0.1,0,0.2,0,0.2,0.2c0,0.3-0.1,2.6-0.2,3.6
		C25.3,10.5,25.3,10.8,25.4,10.9L25.4,10.9z"/>
	<path d="M37.6,10.2c0,0.2-0.1,0.4-0.4,0.5c-0.7,0.2-3.9,0.2-4.8,0.1c0,0.4,0,1,0.1,1.2c0.3,1.4,1.3,2.2,2.4,2.2
		c0.4,0,0.9-0.1,1.2-0.1c0.4-0.1,0.9-0.3,1.3-0.5c0,0,0.1,0.1,0.1,0.2c0,0.1,0,0.1-0.1,0.1c-0.4,0.3-1.3,0.7-2.1,0.9
		c-0.4,0.1-0.8,0.2-1.6,0.2c-2.3,0-3.9-1.1-3.9-3.7c0-2.4,1.8-4.8,4.3-4.8C36.6,6.6,37.6,8.7,37.6,10.2L37.6,10.2z M33.9,7
		c-0.7,0-1.4,1.1-1.4,3.6c1,0.1,2,0,2.3-0.1c0.1-0.1,0.3-0.2,0.3-0.6C35.1,8.9,34.8,6.9,33.9,7L33.9,7z"/>
</g>
</svg>
