<?xml version="1.0" encoding="utf-8"?>
<!-- Generator: Adobe Illustrator 19.1.0, SVG Export Plug-In . SVG Version: 6.00 Build 0)  -->
<svg version="1.1" id="is" xmlns="http://www.w3.org/2000/svg" xmlns:xlink="http://www.w3.org/1999/xlink" x="0px" y="0px"
	 viewBox="0 0 13.2 19.4" style="enable-background:new 0 0 13.2 19.4;" xml:space="preserve">
<g>
	<path d="M3.8,6.6C3.9,6.6,4,6.7,4,6.7c0,0.7-0.1,3.2-0.1,4.1c0,0.8-0.1,2.8-0.1,3.5c0,0.2,0,0.2,0.2,0.2l0.9,0.2
		c0,0,0.1,0.1,0.1,0.2c0,0,0,0.1,0,0.1c-0.4,0-1.3,0-2.3,0c-1,0-1.8,0-2.2,0c-0.1,0-0.1,0-0.1,0c0-0.1,0-0.2,0.1-0.2l0.8-0.2
		c0.1,0,0.2-0.1,0.2-0.2c0-0.4-0.1-2.6-0.1-3.4c0-0.7-0.1-2.6-0.1-3.1c0-0.1,0-0.3-0.2-0.3l-0.8,0c-0.1,0-0.1-0.1-0.1-0.2
		c0,0,0,0,0,0L3.8,6.6z M2.5,3.3c0.8,0,1.2,0.6,1.2,1.2c0,0.7-0.5,1.2-1.2,1.2c-0.6,0-1.3-0.5-1.3-1.2C1.2,4,1.7,3.3,2.5,3.3
		L2.5,3.3z"/>
	<path d="M5.9,9.4c0-1.4,1.8-2.8,4.4-2.8c0.8,0,1.4,0.1,1.6,0.2c0.1,0.1,0.1,0.1,0.1,0.2l0.2,1.8C12.3,8.9,12.1,9,12,9
		C12,9,12,9,12,8.9c-0.3-0.5-0.5-0.9-0.8-1.4c-0.1-0.1-0.2-0.2-0.3-0.3C10.6,7.1,10.2,7,9.7,7C8.8,7,8.2,7.6,8.2,8.3S8.6,9.4,10,9.9
		c1.7,0.6,2.6,1.2,2.6,2.3c0,1.7-1.9,2.9-4.8,2.9c-0.4,0-1.3-0.1-1.6-0.2c-0.1,0-0.1-0.1-0.1-0.2l-0.1-1.9c0-0.1,0.2-0.2,0.2-0.2
		c0,0,0.1,0,0.1,0c0.3,0.4,0.5,1,0.8,1.4c0.1,0.1,0.2,0.2,0.3,0.3c0.2,0.1,0.7,0.3,1.1,0.3c1.1,0,1.9-0.5,1.9-1.3
		c0-0.8-0.5-1.2-2-1.6C6.6,11.2,5.9,10.5,5.9,9.4L5.9,9.4z"/>
</g>
</svg>
