<?xml version="1.0" encoding="utf-8"?>
<!-- Generator: Adobe Illustrator 19.1.0, SVG Export Plug-In . SVG Version: 6.00 Build 0)  -->
<svg version="1.1" id="of" xmlns="http://www.w3.org/2000/svg" xmlns:xlink="http://www.w3.org/1999/xlink" x="0px" y="0px"
	 viewBox="0 0 17.9 19.4" style="enable-background:new 0 0 17.9 19.4;" xml:space="preserve">
<g>
	<path d="M4.6,15.1c-2.5,0-3.9-1.5-3.9-3.9c0-2.4,1.5-4.6,4.8-4.6c2.8,0,4,1.8,4,3.9C9.5,12.9,7.9,15.1,4.6,15.1L4.6,15.1z
		 M5.2,14.7c1.3,0,1.7-1.7,1.7-3.9c0-2.1-0.5-3.9-1.7-3.9c-1.2,0-1.7,1.6-1.7,4C3.3,13,4,14.7,5.2,14.7L5.2,14.7z"/>
	<path d="M17.5,7C17.5,7,17.6,7,17.5,7c0.1,0.1,0,0.3-0.1,0.4l-3.1,0.2c0,1.2-0.1,3.1-0.1,3.4c0,0.6,0,3,0,3.4
		c0,0.2,0.1,0.2,0.2,0.2l1.6,0.2c0.1,0,0.1,0.1,0.1,0.2c0,0,0,0-0.1,0c-0.9,0-1.9,0-2.9,0c-1,0-1.8,0-2.4,0c0,0,0,0,0,0
		c0-0.1,0-0.2,0.1-0.2l1-0.2c0.1,0,0.2-0.1,0.2-0.2c0-0.7-0.1-2.7-0.1-3.6c0-0.7-0.1-2.9-0.1-3.2l-1.4,0c0,0-0.1,0-0.1-0.1
		c0-0.1,0-0.2,0.1-0.3c0.1-0.2,0.2-0.3,0.3-0.3h1.1c0.1-2.1,1.4-4.2,4.5-4.2c0.7,0,1.1,0.1,1.4,0.2c0.1,0,0.1,0.1,0.1,0.1L17.9,5
		c0,0.1-0.2,0.2-0.2,0.2c0,0,0,0-0.1-0.1C17.3,4.6,17,4,16.8,3.6c-0.1-0.1-0.2-0.3-0.3-0.3c-0.1-0.1-0.3-0.2-0.5-0.2
		c-0.9,0-1.6,1.4-1.6,3.8L17.5,7z"/>
</g>
</svg>
