<?xml version="1.0" encoding="utf-8"?>
<!-- Generator: Adobe Illustrator 19.1.0, SVG Export Plug-In . SVG Version: 6.00 Build 0)  -->
<svg version="1.1" id="text" xmlns="http://www.w3.org/2000/svg" xmlns:xlink="http://www.w3.org/1999/xlink" x="0px" y="0px"
	 viewBox="0 0 33.2 19.4" style="enable-background:new 0 0 33.2 19.4;" xml:space="preserve">
<g>
	<path d="M4.2,7.5c-0.1,1.2-0.1,2.6-0.1,3.8c0,2.3,0.5,3.1,1.8,3.1c0.2,0,0.4,0,0.6,0s0.6-0.1,1-0.3c0.1,0,0.1,0.1,0.1,0.2
		c0,0.1,0,0.1-0.1,0.1c-0.4,0.2-1.1,0.5-1.8,0.6c-0.2,0-0.5,0-0.9,0c-2,0-3.2-0.7-3.2-3.3c0-1.2,0.1-3,0.3-4.2L0.3,7.6
		c0,0-0.1,0-0.1-0.1c0-0.1,0-0.2,0.1-0.3C0.3,7,0.4,6.9,0.6,6.9h1.3c0.1-0.3,0.1-1,0.3-1.5C2.2,5.1,2.4,4.9,3,4.6
		c0.5-0.2,1.3-0.5,1.4-0.5c0.1,0,0.1,0.1,0.1,0.2c-0.1,0.6-0.2,2-0.3,2.7l3.2,0c0,0,0,0,0,0.1c0,0.1-0.1,0.3-0.1,0.3L4.2,7.5z"/>
	<path d="M15.8,10.2c0,0.2-0.1,0.4-0.4,0.5c-0.7,0.2-3.9,0.2-4.8,0.1c0,0.4,0,1,0.1,1.2c0.3,1.4,1.3,2.2,2.4,2.2
		c0.4,0,0.9-0.1,1.2-0.1c0.4-0.1,0.9-0.3,1.3-0.5c0,0,0.1,0.1,0.1,0.2c0,0.1,0,0.1-0.1,0.1c-0.4,0.3-1.3,0.7-2.1,0.9
		c-0.4,0.1-0.8,0.2-1.6,0.2C9.7,15.1,8,14,8,11.4c0-2.4,1.8-4.8,4.3-4.8C14.7,6.6,15.8,8.7,15.8,10.2L15.8,10.2z M12,7
		c-0.7,0-1.4,1.1-1.4,3.6c1,0.1,2,0,2.3-0.1c0.1-0.1,0.3-0.2,0.3-0.6C13.2,8.9,13,6.9,12,7L12,7z"/>
	<path d="M20.8,6.7C20.9,6.7,20.9,6.8,20.8,6.7c0.1,0.1,0,0.3,0,0.3l-0.5,0.1c-0.1,0-0.2,0.1-0.1,0.2c0.4,0.6,0.9,1.4,1.1,1.8
		c0.1,0.1,0.2,0.3,0.3,0.4h0.1c0.1-0.1,0.2-0.3,0.3-0.4c0.3-0.5,0.7-1.2,1-1.8c0.1-0.1,0-0.3-0.1-0.3L22.2,7c-0.1,0-0.1-0.1-0.1-0.2
		c0,0,0-0.1,0-0.1h3c0,0,0,0,0,0.1c0,0.1,0,0.2-0.1,0.2l-0.4,0.1c-0.1,0-0.3,0.1-0.4,0.2c-0.9,0.9-1.5,1.7-2.2,2.4
		C22,9.8,22,9.9,21.9,10v0.1c0.1,0.2,0.2,0.3,0.3,0.5c0.9,1.2,1.6,2.4,2.5,3.7c0.1,0.2,0.2,0.3,0.3,0.3l0.4,0.2
		c0.1,0,0.1,0.1,0.1,0.2c0,0,0,0.1-0.1,0.1c-0.4,0-1,0-1.7,0c-0.7,0-1.5,0-2,0c-0.1,0-0.1,0-0.1-0.1c0-0.1,0-0.2,0.1-0.2l0.6-0.1
		c0.2,0,0.2-0.1,0.1-0.3c-0.5-0.7-1.4-1.7-1.9-2.4c-0.1-0.1-0.2-0.3-0.3-0.4h-0.1c-0.1,0.2-0.2,0.3-0.3,0.4
		c-0.6,0.8-1.1,1.6-1.5,2.3c-0.1,0.2,0,0.3,0.1,0.3l0.6,0.2c0.1,0,0.1,0.1,0.1,0.2c0,0,0,0.1-0.1,0.1c-0.5,0-1.1,0-1.7,0
		c-0.6,0-1.2,0-1.5,0C16,15,16,15,16,14.9c0-0.1,0-0.2,0.1-0.2l0.7-0.2c0.1,0,0.3-0.2,0.4-0.3c0.5-0.6,1.8-1.9,2.4-2.6
		c0.1-0.1,0.2-0.3,0.4-0.4v-0.1c-0.1-0.1-0.2-0.3-0.3-0.4c-0.7-0.8-1.7-2.2-2.7-3.4c-0.1-0.1-0.2-0.2-0.3-0.2L16.2,7
		c-0.1,0-0.1-0.1-0.1-0.2c0,0,0-0.1,0-0.1H20.8z"/>
	<path d="M29.8,7.5c-0.1,1.2-0.1,2.6-0.1,3.8c0,2.3,0.5,3.1,1.8,3.1c0.2,0,0.4,0,0.6,0c0.2,0,0.6-0.1,1-0.3c0.1,0,0.1,0.1,0.1,0.2
		c0,0.1,0,0.1-0.1,0.1c-0.4,0.2-1.1,0.5-1.8,0.6c-0.2,0-0.5,0-0.9,0c-2,0-3.2-0.7-3.2-3.3c0-1.2,0.1-3,0.3-4.2l-1.5,0.1
		c0,0-0.1,0-0.1-0.1c0-0.1,0-0.2,0.1-0.3C26,7,26.1,6.9,26.3,6.9h1.3c0.1-0.3,0.1-1,0.3-1.5c0.1-0.3,0.3-0.6,0.8-0.8
		c0.5-0.2,1.3-0.5,1.4-0.5c0.1,0,0.1,0.1,0.1,0.2c-0.1,0.6-0.2,2-0.3,2.7l3.2,0c0,0,0,0,0,0.1c0,0.1-0.1,0.3-0.1,0.3L29.8,7.5z"/>
</g>
</svg>
